<?xml version="1.0" encoding="UTF-8" standalone="no"?>
<!-- Created with Inkscape (http://www.inkscape.org/) -->
<svg width="64" height="64" viewBox="0 0 16.933333 16.933333" version="1.1" id="svg1" inkscape:version="1.3.2 (091e20e, 2023-11-25, custom)" sodipodi:docname="logo.svg" xmlns:inkscape="http://www.inkscape.org/namespaces/inkscape" xmlns:sodipodi="http://sodipodi.sourceforge.net/DTD/sodipodi-0.dtd" xmlns="http://www.w3.org/2000/svg" xmlns:svg="http://www.w3.org/2000/svg">
  <sodipodi:namedview id="namedview1" pagecolor="#ffffff" bordercolor="#000000" borderopacity="0.25" inkscape:showpageshadow="2" inkscape:pageopacity="0.0" inkscape:pagecheckerboard="0" inkscape:deskcolor="#d1d1d1" inkscape:document-units="mm" inkscape:zoom="8.7262606" inkscape:cx="25.211257" inkscape:cy="44.176998" inkscape:window-width="1920" inkscape:window-height="1027" inkscape:window-x="-8" inkscape:window-y="-8" inkscape:window-maximized="1" inkscape:current-layer="layer1"/>
  <defs id="defs1"/>
  <g inkscape:label="Layer 1" inkscape:groupmode="layer" id="layer1">
    <path id="Logo" class="fil0" d="M 0.42205878,11.987898 C 0.43099101,8.5111093 0.44726751,6.9456469 0.47525516,6.7167516 0.73439895,4.6022431 1.4780566,3.0493851 2.7944586,1.8733977 3.8454048,0.93462445 5.2961674,0.27642443 6.8139912,0.04954583 c 0.436111,-0.06529459 0.84878,-0.06604887 1.295977,-0.0022827 0.9942364,0.14116891 1.859144,0.43283395 2.6297768,0.88659115 2.195174,1.2921997 3.387548,3.6721562 3.511328,7.0085321 l 0.02193,0.5913968 h -3.91919 V 7.9928038 c 0,-0.8475176 -0.159073,-1.9438454 -0.348138,-2.3976026 C 9.7843441,5.0632969 9.2945404,4.4719001 8.8637192,4.2157793 8.5715559,4.0420911 8.0666171,3.8769739 7.6905107,3.8328587 6.7247582,3.7189152 5.6904459,4.1560346 5.1066156,4.924901 4.8041108,5.3234511 4.5389129,5.9536694 4.4100903,6.5806106 4.2754816,7.2355335 4.2747274,7.2700694 4.2608626,12.159303 l -0.013398,4.77403 H 0.40843217 l 0.0133983,-4.945449 z M 10.285482,16.521941 V 16.24767 h 1.645624 v 0.548542 h -1.645624 z m 2.262741,0 V 16.24767 h 1.577055 v 0.548542 h -1.577055 z m -2.53701,-2.935557 v -2.022749 h 4.456904 v 2.022749 l 0.02293,2.329287 h -2.25164 l -2.213079,-0.03076 -0.01538,-2.298784 z m 5.176613,1.118511 v -0.582826 h 1.063054 v 1.165652 h -1.063054 z m -0.274269,-1.439923 v -0.719961 h 1.611344 v 1.439923 H 14.913557 Z M 7.9539321,13.196402 V 12.47644 h 1.5427744 v 1.439923 H 7.9539321 Z M 15.172701,12.30981 c -0.01012,-0.06125 -0.04962,-0.533668 -0.08793,-1.049691 -0.03861,-0.516023 -0.100329,-1.3181648 -0.137388,-1.782762 -0.07662,-0.9551589 -0.08674,-1.5851251 -0.02848,-1.7565445 0.100081,-0.2939338 0.357716,-0.5056872 0.686184,-0.5636673 0.162348,-0.028742 0.471155,0.059995 0.607282,0.1746965 0.284601,0.239483 0.324935,0.4656053 0.261913,1.4646274 -0.02521,0.4003147 -0.07334,1.3794219 -0.106879,2.1762699 l -0.06104,1.448494 h -1.11498 l -0.01816,-0.111423 z m -4.20179,-2.207024 V 9.0399865 h 2.468441 v 2.1256005 h -2.468441 z" style="clip-rule:evenodd;fill:#d40000;fill-rule:nonzero;stroke-width:0.0252087;image-rendering:optimizeQuality;shape-rendering:geometricPrecision;text-rendering:geometricPrecision"/>
  </g>
</svg>